<mxfile host="app.diagrams.net" agent="Mozilla/5.0 (Windows NT 10.0; Win64; x64; rv:139.0) Gecko/20100101 Firefox/139.0" version="27.1.6">
  <diagram id="C5RBs43oDa-KdzZeNtuy" name="Page-1">
    <mxGraphModel dx="1495" dy="599" grid="1" gridSize="10" guides="1" tooltips="1" connect="1" arrows="1" fold="1" page="1" pageScale="1" pageWidth="827" pageHeight="1169" math="0" shadow="0">
      <root>
        <mxCell id="WIyWlLk6GJQsqaUBKTNV-0" />
        <mxCell id="WIyWlLk6GJQsqaUBKTNV-1" parent="WIyWlLk6GJQsqaUBKTNV-0" />
        <mxCell id="WIyWlLk6GJQsqaUBKTNV-2" value="" style="rounded=0;html=1;jettySize=auto;orthogonalLoop=1;fontSize=11;endArrow=block;endFill=0;endSize=8;strokeWidth=1;shadow=0;labelBackgroundColor=none;edgeStyle=orthogonalEdgeStyle;" parent="WIyWlLk6GJQsqaUBKTNV-1" source="WIyWlLk6GJQsqaUBKTNV-3" target="WIyWlLk6GJQsqaUBKTNV-6" edge="1">
          <mxGeometry relative="1" as="geometry" />
        </mxCell>
        <mxCell id="WIyWlLk6GJQsqaUBKTNV-3" value="&lt;b&gt;Получение метрик от внешнего источника&lt;/b&gt;" style="rounded=1;whiteSpace=wrap;html=1;fontSize=12;glass=0;strokeWidth=1;shadow=0;" parent="WIyWlLk6GJQsqaUBKTNV-1" vertex="1">
          <mxGeometry x="125" y="10" width="120" height="40" as="geometry" />
        </mxCell>
        <mxCell id="WIyWlLk6GJQsqaUBKTNV-4" value="Yes" style="rounded=0;html=1;jettySize=auto;orthogonalLoop=1;fontSize=11;endArrow=block;endFill=0;endSize=8;strokeWidth=1;shadow=0;labelBackgroundColor=none;edgeStyle=orthogonalEdgeStyle;entryX=0.5;entryY=0;entryDx=0;entryDy=0;" parent="WIyWlLk6GJQsqaUBKTNV-1" source="WIyWlLk6GJQsqaUBKTNV-6" target="5Hg8QZIM00KDzzEJ88aO-0" edge="1">
          <mxGeometry y="20" relative="1" as="geometry">
            <mxPoint as="offset" />
            <mxPoint x="185" y="260" as="targetPoint" />
          </mxGeometry>
        </mxCell>
        <mxCell id="WIyWlLk6GJQsqaUBKTNV-5" value="No" style="edgeStyle=orthogonalEdgeStyle;rounded=0;html=1;jettySize=auto;orthogonalLoop=1;fontSize=11;endArrow=block;endFill=0;endSize=8;strokeWidth=1;shadow=0;labelBackgroundColor=none;" parent="WIyWlLk6GJQsqaUBKTNV-1" source="WIyWlLk6GJQsqaUBKTNV-6" target="WIyWlLk6GJQsqaUBKTNV-7" edge="1">
          <mxGeometry y="10" relative="1" as="geometry">
            <mxPoint as="offset" />
          </mxGeometry>
        </mxCell>
        <mxCell id="WIyWlLk6GJQsqaUBKTNV-6" value="Первичная обработка и&lt;br&gt;обогащение данных метрик" style="rhombus;whiteSpace=wrap;html=1;shadow=0;fontFamily=Helvetica;fontSize=12;align=center;strokeWidth=1;spacing=6;spacingTop=-4;" parent="WIyWlLk6GJQsqaUBKTNV-1" vertex="1">
          <mxGeometry x="80" y="80" width="210" height="80" as="geometry" />
        </mxCell>
        <mxCell id="WIyWlLk6GJQsqaUBKTNV-7" value="&lt;b&gt;Метрика направляется в отсев&lt;/b&gt;" style="rounded=1;whiteSpace=wrap;html=1;fontSize=12;glass=0;strokeWidth=1;shadow=0;" parent="WIyWlLk6GJQsqaUBKTNV-1" vertex="1">
          <mxGeometry x="415" y="100" width="120" height="40" as="geometry" />
        </mxCell>
        <mxCell id="WIyWlLk6GJQsqaUBKTNV-8" value="No" style="rounded=0;html=1;jettySize=auto;orthogonalLoop=1;fontSize=11;endArrow=block;endFill=0;endSize=8;strokeWidth=1;shadow=0;labelBackgroundColor=none;edgeStyle=orthogonalEdgeStyle;exitX=1;exitY=0.5;exitDx=0;exitDy=0;" parent="WIyWlLk6GJQsqaUBKTNV-1" source="WIyWlLk6GJQsqaUBKTNV-10" edge="1">
          <mxGeometry x="-0.2468" y="20" relative="1" as="geometry">
            <mxPoint as="offset" />
            <mxPoint x="185" y="490" as="targetPoint" />
            <Array as="points">
              <mxPoint x="385" y="550" />
              <mxPoint x="385" y="490" />
            </Array>
          </mxGeometry>
        </mxCell>
        <mxCell id="WIyWlLk6GJQsqaUBKTNV-10" value="Проверка условий на открытие инциденты" style="rhombus;whiteSpace=wrap;html=1;shadow=0;fontFamily=Helvetica;fontSize=12;align=center;strokeWidth=1;spacing=6;spacingTop=-4;" parent="WIyWlLk6GJQsqaUBKTNV-1" vertex="1">
          <mxGeometry x="90" y="510" width="190" height="80" as="geometry" />
        </mxCell>
        <mxCell id="WIyWlLk6GJQsqaUBKTNV-12" value="Сохранение метрики" style="rounded=1;whiteSpace=wrap;html=1;fontSize=12;glass=0;strokeWidth=1;shadow=0;" parent="WIyWlLk6GJQsqaUBKTNV-1" vertex="1">
          <mxGeometry x="125" y="400" width="120" height="40" as="geometry" />
        </mxCell>
        <mxCell id="mZUCvUm8G59XYxikK2uu-3" value="" style="rounded=0;html=1;jettySize=auto;orthogonalLoop=1;fontSize=11;endArrow=block;endFill=0;endSize=8;strokeWidth=1;shadow=0;labelBackgroundColor=none;edgeStyle=orthogonalEdgeStyle;" parent="WIyWlLk6GJQsqaUBKTNV-1" source="WIyWlLk6GJQsqaUBKTNV-12" edge="1" target="WIyWlLk6GJQsqaUBKTNV-10">
          <mxGeometry relative="1" as="geometry">
            <mxPoint x="185" y="990" as="sourcePoint" />
            <mxPoint x="185" y="950" as="targetPoint" />
          </mxGeometry>
        </mxCell>
        <mxCell id="mZUCvUm8G59XYxikK2uu-5" value="Yes" style="rounded=0;html=1;jettySize=auto;orthogonalLoop=1;fontSize=11;endArrow=block;endFill=0;endSize=8;strokeWidth=1;shadow=0;labelBackgroundColor=none;edgeStyle=orthogonalEdgeStyle;" parent="WIyWlLk6GJQsqaUBKTNV-1" source="WIyWlLk6GJQsqaUBKTNV-10" edge="1">
          <mxGeometry y="20" relative="1" as="geometry">
            <mxPoint as="offset" />
            <mxPoint x="184.5" y="770" as="sourcePoint" />
            <mxPoint x="185" y="620" as="targetPoint" />
          </mxGeometry>
        </mxCell>
        <mxCell id="5Hg8QZIM00KDzzEJ88aO-23" style="edgeStyle=orthogonalEdgeStyle;rounded=0;orthogonalLoop=1;jettySize=auto;html=1;" edge="1" parent="WIyWlLk6GJQsqaUBKTNV-1" source="mZUCvUm8G59XYxikK2uu-6" target="mZUCvUm8G59XYxikK2uu-11">
          <mxGeometry relative="1" as="geometry">
            <Array as="points">
              <mxPoint x="770" y="770" />
            </Array>
          </mxGeometry>
        </mxCell>
        <mxCell id="5Hg8QZIM00KDzzEJ88aO-24" value="No" style="edgeLabel;html=1;align=center;verticalAlign=middle;resizable=0;points=[];" vertex="1" connectable="0" parent="5Hg8QZIM00KDzzEJ88aO-23">
          <mxGeometry x="-0.4016" y="2" relative="1" as="geometry">
            <mxPoint as="offset" />
          </mxGeometry>
        </mxCell>
        <mxCell id="mZUCvUm8G59XYxikK2uu-6" value="Нотификация настроена?" style="rhombus;whiteSpace=wrap;html=1;shadow=0;fontFamily=Helvetica;fontSize=12;align=center;strokeWidth=1;spacing=6;spacingTop=-4;" parent="WIyWlLk6GJQsqaUBKTNV-1" vertex="1">
          <mxGeometry x="90" y="730" width="190" height="80" as="geometry" />
        </mxCell>
        <mxCell id="mZUCvUm8G59XYxikK2uu-8" value="Yes" style="rounded=0;html=1;jettySize=auto;orthogonalLoop=1;fontSize=11;endArrow=block;endFill=0;endSize=8;strokeWidth=1;shadow=0;labelBackgroundColor=none;edgeStyle=orthogonalEdgeStyle;exitX=0.5;exitY=1;exitDx=0;exitDy=0;entryX=0.5;entryY=0;entryDx=0;entryDy=0;" parent="WIyWlLk6GJQsqaUBKTNV-1" source="mZUCvUm8G59XYxikK2uu-6" target="5Hg8QZIM00KDzzEJ88aO-3" edge="1">
          <mxGeometry y="20" relative="1" as="geometry">
            <mxPoint as="offset" />
            <mxPoint x="265" y="1150" as="sourcePoint" />
            <mxPoint x="355" y="1210" as="targetPoint" />
            <Array as="points" />
          </mxGeometry>
        </mxCell>
        <mxCell id="mZUCvUm8G59XYxikK2uu-11" value="Отправка инцидента во внешнюю систему не производится, сохраняется информация о причине неотправки" style="rounded=1;whiteSpace=wrap;html=1;fontSize=12;glass=0;strokeWidth=1;shadow=0;" parent="WIyWlLk6GJQsqaUBKTNV-1" vertex="1">
          <mxGeometry x="620" y="1550" width="160" height="80" as="geometry" />
        </mxCell>
        <mxCell id="mZUCvUm8G59XYxikK2uu-15" value="Проверка условия на закрытие инцидента" style="rhombus;whiteSpace=wrap;html=1;shadow=0;fontFamily=Helvetica;fontSize=12;align=center;strokeWidth=1;spacing=6;spacingTop=-4;" parent="WIyWlLk6GJQsqaUBKTNV-1" vertex="1">
          <mxGeometry x="70" y="1730" width="190" height="80" as="geometry" />
        </mxCell>
        <mxCell id="mZUCvUm8G59XYxikK2uu-16" value="&lt;span&gt;Отправка инцидента во внешнюю систему&amp;nbsp;&lt;/span&gt;" style="rhombus;whiteSpace=wrap;html=1;shadow=0;fontFamily=Helvetica;fontSize=12;align=center;strokeWidth=1;spacing=6;spacingTop=-4;" parent="WIyWlLk6GJQsqaUBKTNV-1" vertex="1">
          <mxGeometry x="330" y="1550" width="190" height="80" as="geometry" />
        </mxCell>
        <mxCell id="mZUCvUm8G59XYxikK2uu-17" value="No" style="rounded=0;html=1;jettySize=auto;orthogonalLoop=1;fontSize=11;endArrow=block;endFill=0;endSize=8;strokeWidth=1;shadow=0;labelBackgroundColor=none;edgeStyle=orthogonalEdgeStyle;entryX=0;entryY=0.5;entryDx=0;entryDy=0;" parent="WIyWlLk6GJQsqaUBKTNV-1" source="mZUCvUm8G59XYxikK2uu-16" target="mZUCvUm8G59XYxikK2uu-11" edge="1">
          <mxGeometry x="-0.0588" y="20" relative="1" as="geometry">
            <mxPoint as="offset" />
            <mxPoint x="260" y="2049.5" as="sourcePoint" />
            <mxPoint x="425" y="2049.5" as="targetPoint" />
            <Array as="points" />
          </mxGeometry>
        </mxCell>
        <mxCell id="mZUCvUm8G59XYxikK2uu-18" value="Yes" style="rounded=0;html=1;jettySize=auto;orthogonalLoop=1;fontSize=11;endArrow=block;endFill=0;endSize=8;strokeWidth=1;shadow=0;labelBackgroundColor=none;edgeStyle=orthogonalEdgeStyle;" parent="WIyWlLk6GJQsqaUBKTNV-1" source="mZUCvUm8G59XYxikK2uu-16" target="mZUCvUm8G59XYxikK2uu-15" edge="1">
          <mxGeometry x="-0.2" y="-20" relative="1" as="geometry">
            <mxPoint as="offset" />
            <mxPoint x="165" y="2110" as="sourcePoint" />
            <mxPoint x="155" y="2270" as="targetPoint" />
            <Array as="points" />
          </mxGeometry>
        </mxCell>
        <mxCell id="mZUCvUm8G59XYxikK2uu-20" value="No" style="rounded=0;html=1;jettySize=auto;orthogonalLoop=1;fontSize=11;endArrow=block;endFill=0;endSize=8;strokeWidth=1;shadow=0;labelBackgroundColor=none;edgeStyle=orthogonalEdgeStyle;" parent="WIyWlLk6GJQsqaUBKTNV-1" edge="1">
          <mxGeometry x="-0.1729" y="20" relative="1" as="geometry">
            <mxPoint y="1" as="offset" />
            <mxPoint x="260" y="1769.5" as="sourcePoint" />
            <mxPoint x="165" y="1700" as="targetPoint" />
            <Array as="points">
              <mxPoint x="300" y="1770" />
              <mxPoint x="300" y="1700" />
            </Array>
          </mxGeometry>
        </mxCell>
        <mxCell id="mZUCvUm8G59XYxikK2uu-21" value="Yes" style="rounded=0;html=1;jettySize=auto;orthogonalLoop=1;fontSize=11;endArrow=block;endFill=0;endSize=8;strokeWidth=1;shadow=0;labelBackgroundColor=none;edgeStyle=orthogonalEdgeStyle;" parent="WIyWlLk6GJQsqaUBKTNV-1" source="mZUCvUm8G59XYxikK2uu-15" target="mZUCvUm8G59XYxikK2uu-22" edge="1">
          <mxGeometry x="-0.2" y="-20" relative="1" as="geometry">
            <mxPoint as="offset" />
            <mxPoint x="175" y="1690" as="sourcePoint" />
            <mxPoint x="165" y="1850" as="targetPoint" />
            <Array as="points" />
          </mxGeometry>
        </mxCell>
        <mxCell id="5Hg8QZIM00KDzzEJ88aO-20" style="edgeStyle=orthogonalEdgeStyle;rounded=0;orthogonalLoop=1;jettySize=auto;html=1;" edge="1" parent="WIyWlLk6GJQsqaUBKTNV-1" source="mZUCvUm8G59XYxikK2uu-22" target="mZUCvUm8G59XYxikK2uu-27">
          <mxGeometry relative="1" as="geometry" />
        </mxCell>
        <mxCell id="mZUCvUm8G59XYxikK2uu-22" value="Отправка во внешнюю систему информации о закрытии инцидента НЕ ТРЕБУЕТСЯ" style="rhombus;whiteSpace=wrap;html=1;shadow=0;fontFamily=Helvetica;fontSize=12;align=center;strokeWidth=1;spacing=6;spacingTop=-4;" parent="WIyWlLk6GJQsqaUBKTNV-1" vertex="1">
          <mxGeometry x="70" y="1850" width="190" height="80" as="geometry" />
        </mxCell>
        <mxCell id="mZUCvUm8G59XYxikK2uu-27" value="&lt;b&gt;Закрытие инцидента в SQM&lt;/b&gt;" style="rounded=1;whiteSpace=wrap;html=1;fontSize=12;glass=0;strokeWidth=1;shadow=0;" parent="WIyWlLk6GJQsqaUBKTNV-1" vertex="1">
          <mxGeometry x="85" y="2010" width="160" height="80" as="geometry" />
        </mxCell>
        <mxCell id="mZUCvUm8G59XYxikK2uu-39" value="Создание инцидента в SQM, ожидание всех внутренних таймеров перед отправкой" style="rounded=1;whiteSpace=wrap;html=1;fontSize=12;glass=0;strokeWidth=1;shadow=0;" parent="WIyWlLk6GJQsqaUBKTNV-1" vertex="1">
          <mxGeometry x="95" y="620" width="180" height="50" as="geometry" />
        </mxCell>
        <mxCell id="mZUCvUm8G59XYxikK2uu-41" value="" style="rounded=0;html=1;jettySize=auto;orthogonalLoop=1;fontSize=11;endArrow=block;endFill=0;endSize=8;strokeWidth=1;shadow=0;labelBackgroundColor=none;edgeStyle=orthogonalEdgeStyle;entryX=0.5;entryY=0;entryDx=0;entryDy=0;" parent="WIyWlLk6GJQsqaUBKTNV-1" source="mZUCvUm8G59XYxikK2uu-39" target="mZUCvUm8G59XYxikK2uu-6" edge="1">
          <mxGeometry relative="1" as="geometry">
            <mxPoint x="195" y="930" as="sourcePoint" />
            <mxPoint x="195" y="960" as="targetPoint" />
          </mxGeometry>
        </mxCell>
        <mxCell id="5Hg8QZIM00KDzzEJ88aO-1" value="No" style="edgeStyle=orthogonalEdgeStyle;rounded=0;orthogonalLoop=1;jettySize=auto;html=1;entryX=0.5;entryY=1;entryDx=0;entryDy=0;" edge="1" parent="WIyWlLk6GJQsqaUBKTNV-1" source="5Hg8QZIM00KDzzEJ88aO-0" target="WIyWlLk6GJQsqaUBKTNV-7">
          <mxGeometry relative="1" as="geometry" />
        </mxCell>
        <mxCell id="5Hg8QZIM00KDzzEJ88aO-2" value="Yes" style="edgeStyle=orthogonalEdgeStyle;rounded=0;orthogonalLoop=1;jettySize=auto;html=1;" edge="1" parent="WIyWlLk6GJQsqaUBKTNV-1" source="5Hg8QZIM00KDzzEJ88aO-0" target="WIyWlLk6GJQsqaUBKTNV-12">
          <mxGeometry relative="1" as="geometry" />
        </mxCell>
        <mxCell id="5Hg8QZIM00KDzzEJ88aO-0" value="Проверка UID в Ключ.&lt;br&gt;Обогащение Типом потока" style="rhombus;whiteSpace=wrap;html=1;shadow=0;fontFamily=Helvetica;fontSize=12;align=center;strokeWidth=1;spacing=6;spacingTop=-4;" vertex="1" parent="WIyWlLk6GJQsqaUBKTNV-1">
          <mxGeometry x="80" y="240" width="210" height="80" as="geometry" />
        </mxCell>
        <mxCell id="5Hg8QZIM00KDzzEJ88aO-5" value="Домофон" style="edgeStyle=orthogonalEdgeStyle;rounded=0;orthogonalLoop=1;jettySize=auto;html=1;" edge="1" parent="WIyWlLk6GJQsqaUBKTNV-1" source="5Hg8QZIM00KDzzEJ88aO-3" target="5Hg8QZIM00KDzzEJ88aO-4">
          <mxGeometry relative="1" as="geometry" />
        </mxCell>
        <mxCell id="5Hg8QZIM00KDzzEJ88aO-7" value="Камера" style="edgeStyle=orthogonalEdgeStyle;rounded=0;orthogonalLoop=1;jettySize=auto;html=1;" edge="1" parent="WIyWlLk6GJQsqaUBKTNV-1" source="5Hg8QZIM00KDzzEJ88aO-3" target="5Hg8QZIM00KDzzEJ88aO-6">
          <mxGeometry relative="1" as="geometry" />
        </mxCell>
        <mxCell id="5Hg8QZIM00KDzzEJ88aO-3" value="Тип Домофон - Камера" style="rhombus;whiteSpace=wrap;html=1;shadow=0;fontFamily=Helvetica;fontSize=12;align=center;strokeWidth=1;spacing=6;spacingTop=-4;" vertex="1" parent="WIyWlLk6GJQsqaUBKTNV-1">
          <mxGeometry x="340" y="850" width="190" height="80" as="geometry" />
        </mxCell>
        <mxCell id="5Hg8QZIM00KDzzEJ88aO-9" style="edgeStyle=orthogonalEdgeStyle;rounded=0;orthogonalLoop=1;jettySize=auto;html=1;" edge="1" parent="WIyWlLk6GJQsqaUBKTNV-1" source="5Hg8QZIM00KDzzEJ88aO-4" target="5Hg8QZIM00KDzzEJ88aO-8">
          <mxGeometry relative="1" as="geometry">
            <Array as="points">
              <mxPoint x="425" y="980" />
            </Array>
          </mxGeometry>
        </mxCell>
        <mxCell id="5Hg8QZIM00KDzzEJ88aO-4" value="Запрос информации для обогащения в системе Ключ" style="rounded=1;whiteSpace=wrap;html=1;fontSize=12;glass=0;strokeWidth=1;shadow=0;" vertex="1" parent="WIyWlLk6GJQsqaUBKTNV-1">
          <mxGeometry x="130" y="940" width="160" height="80" as="geometry" />
        </mxCell>
        <mxCell id="5Hg8QZIM00KDzzEJ88aO-10" style="edgeStyle=orthogonalEdgeStyle;rounded=0;orthogonalLoop=1;jettySize=auto;html=1;" edge="1" parent="WIyWlLk6GJQsqaUBKTNV-1" source="5Hg8QZIM00KDzzEJ88aO-6" target="5Hg8QZIM00KDzzEJ88aO-8">
          <mxGeometry relative="1" as="geometry" />
        </mxCell>
        <mxCell id="5Hg8QZIM00KDzzEJ88aO-6" value="Запрос информации в новой витрине КонСлой" style="rounded=1;whiteSpace=wrap;html=1;fontSize=12;glass=0;strokeWidth=1;shadow=0;" vertex="1" parent="WIyWlLk6GJQsqaUBKTNV-1">
          <mxGeometry x="550" y="940" width="160" height="80" as="geometry" />
        </mxCell>
        <mxCell id="5Hg8QZIM00KDzzEJ88aO-13" value="Yes" style="edgeStyle=orthogonalEdgeStyle;rounded=0;orthogonalLoop=1;jettySize=auto;html=1;" edge="1" parent="WIyWlLk6GJQsqaUBKTNV-1" source="5Hg8QZIM00KDzzEJ88aO-8" target="5Hg8QZIM00KDzzEJ88aO-12">
          <mxGeometry relative="1" as="geometry" />
        </mxCell>
        <mxCell id="5Hg8QZIM00KDzzEJ88aO-22" value="No" style="edgeStyle=orthogonalEdgeStyle;rounded=0;orthogonalLoop=1;jettySize=auto;html=1;" edge="1" parent="WIyWlLk6GJQsqaUBKTNV-1" source="5Hg8QZIM00KDzzEJ88aO-8" target="mZUCvUm8G59XYxikK2uu-11">
          <mxGeometry relative="1" as="geometry" />
        </mxCell>
        <mxCell id="5Hg8QZIM00KDzzEJ88aO-8" value="Данный найдены" style="rhombus;whiteSpace=wrap;html=1;shadow=0;fontFamily=Helvetica;fontSize=12;align=center;strokeWidth=1;spacing=6;spacingTop=-4;" vertex="1" parent="WIyWlLk6GJQsqaUBKTNV-1">
          <mxGeometry x="330" y="1050" width="190" height="80" as="geometry" />
        </mxCell>
        <mxCell id="5Hg8QZIM00KDzzEJ88aO-15" value="Yes" style="edgeStyle=orthogonalEdgeStyle;rounded=0;orthogonalLoop=1;jettySize=auto;html=1;" edge="1" parent="WIyWlLk6GJQsqaUBKTNV-1" source="5Hg8QZIM00KDzzEJ88aO-12" target="5Hg8QZIM00KDzzEJ88aO-14">
          <mxGeometry relative="1" as="geometry" />
        </mxCell>
        <mxCell id="5Hg8QZIM00KDzzEJ88aO-12" value="Поиск Услуги в ЕИП (полная выгрузка или API)" style="rounded=1;whiteSpace=wrap;html=1;fontSize=12;glass=0;strokeWidth=1;shadow=0;" vertex="1" parent="WIyWlLk6GJQsqaUBKTNV-1">
          <mxGeometry x="345" y="1200" width="160" height="80" as="geometry" />
        </mxCell>
        <mxCell id="5Hg8QZIM00KDzzEJ88aO-19" value="Yes" style="edgeStyle=orthogonalEdgeStyle;rounded=0;orthogonalLoop=1;jettySize=auto;html=1;" edge="1" parent="WIyWlLk6GJQsqaUBKTNV-1" source="5Hg8QZIM00KDzzEJ88aO-14" target="mZUCvUm8G59XYxikK2uu-16">
          <mxGeometry relative="1" as="geometry" />
        </mxCell>
        <mxCell id="5Hg8QZIM00KDzzEJ88aO-21" value="No" style="edgeStyle=orthogonalEdgeStyle;rounded=0;orthogonalLoop=1;jettySize=auto;html=1;" edge="1" parent="WIyWlLk6GJQsqaUBKTNV-1" source="5Hg8QZIM00KDzzEJ88aO-14" target="mZUCvUm8G59XYxikK2uu-11">
          <mxGeometry relative="1" as="geometry" />
        </mxCell>
        <mxCell id="5Hg8QZIM00KDzzEJ88aO-14" value="Услуга найдена" style="rhombus;whiteSpace=wrap;html=1;shadow=0;fontFamily=Helvetica;fontSize=12;align=center;strokeWidth=1;spacing=6;spacingTop=-4;" vertex="1" parent="WIyWlLk6GJQsqaUBKTNV-1">
          <mxGeometry x="330" y="1370" width="190" height="80" as="geometry" />
        </mxCell>
      </root>
    </mxGraphModel>
  </diagram>
</mxfile>
